<svg xmlns="http://www.w3.org/2000/svg" version="1.1" xmlns:xlink="http://www.w3.org/1999/xlink" xmlns:svgjs="http://svgjs.dev/svgjs" width="1000" height="623" viewBox="0 0 1000 623"><g transform="matrix(1,0,0,1,-0.6060606060606233,0.2522267206477409)"><svg viewBox="0 0 396 247" data-background-color="#ffffff" preserveAspectRatio="xMidYMid meet" height="623" width="1000" xmlns="http://www.w3.org/2000/svg" xmlns:xlink="http://www.w3.org/1999/xlink"><g id="tight-bounds" transform="matrix(1,0,0,1,0.2400000000000091,-0.09999999999999432)"><svg viewBox="0 0 395.52 247.2" height="247.2" width="395.52"><g><svg></svg></g><g><svg viewBox="0 0 395.52 247.2" height="247.2" width="395.52"><g transform="matrix(1,0,0,1,39.55199999999999,97.22065404475043)"><svg viewBox="0 0 316.416 52.75869191049913" height="52.75869191049913" width="316.416"><g><svg viewBox="0 0 316.416 52.75869191049913" height="52.75869191049913" width="316.416"><g><svg viewBox="0 0 316.416 52.75869191049913" height="52.75869191049913" width="316.416"><g><svg viewBox="0 0 316.416 52.75869191049913" height="52.75869191049913" width="316.416"><g><svg viewBox="0 0 316.416 52.75869191049913" height="52.75869191049913" width="316.416"><g><svg viewBox="0 0 316.416 52.75869191049913" height="52.75869191049913" width="316.416"><g transform="matrix(1,0,0,1,0,0)"><svg width="316.416" viewBox="1.149999976158142 -38.45000076293945 232.3800048828125 38.75" height="52.75869191049913" data-palette-color="#000000"><path d="M9.2 0L5.25 0 5.25-23.45 1.15-23.45 1.15-26 5.25-26.7 5.25-29.75Q5.25-32.6 5.95-34.52 6.65-36.45 8.3-37.45 9.95-38.45 12.9-38.45L12.9-38.45Q14.65-38.45 15.88-38.27 17.1-38.1 18.05-37.95L18.05-37.95 18.05-35.15 13.6-35.15Q11.8-35.15 10.85-34.58 9.9-34 9.55-32.83 9.2-31.65 9.2-29.95L9.2-29.95 9.2-26.7 17.5-26.7 17.5-23.45 9.2-23.45 9.2 0ZM32.4 0.3L32.4 0.3Q28.2 0.3 25.77-0.95 23.35-2.2 22.3-5.2 21.25-8.2 21.25-13.4L21.25-13.4Q21.25-18.7 22.32-21.68 23.4-24.65 25.85-25.85 28.3-27.05 32.45-27.05L32.45-27.05Q36-27.05 38.22-26.25 40.45-25.45 41.52-23.53 42.6-21.6 42.6-18.2L42.6-18.2Q42.6-15.85 41.67-14.43 40.75-13 39.02-12.38 37.3-11.75 34.95-11.75L34.95-11.75 25.2-11.75Q25.25-8.5 25.9-6.53 26.55-4.55 28.27-3.68 30-2.8 33.35-2.8L33.35-2.8 41.95-2.8 41.95-0.4Q39.65-0.1 37.45 0.1 35.25 0.3 32.4 0.3ZM25.15-14.35L25.15-14.35 34.65-14.35Q36.9-14.35 37.97-15.18 39.05-16 39.05-18.15L39.05-18.15Q39.05-20.45 38.37-21.73 37.7-23 36.27-23.53 34.85-24.05 32.45-24.05L32.45-24.05Q29.65-24.05 28.05-23.23 26.45-22.4 25.8-20.3 25.15-18.2 25.15-14.35ZM57.9 0.3L57.9 0.3Q54.6 0.3 52.47-1.13 50.35-2.55 49.32-5.53 48.3-8.5 48.3-13.15L48.3-13.15Q48.3-18.1 49.3-21.18 50.3-24.25 52.5-25.65 54.7-27.05 58.4-27.05L58.4-27.05Q60.65-27.05 62.8-26.55 64.95-26.05 66.6-25.45L66.6-25.45 66.6-38.15 70.55-38.15 70.55 0 67.35 0 66.6-2.7Q65.85-2.05 64.37-1.35 62.9-0.65 61.17-0.18 59.45 0.3 57.9 0.3ZM59.05-2.95L59.05-2.95Q61.35-2.95 63.22-3.68 65.1-4.4 66.6-5.2L66.6-5.2 66.6-22.65Q64.8-23.2 63.15-23.58 61.5-23.95 59.45-23.95L59.45-23.95Q56.9-23.95 55.3-23 53.7-22.05 52.97-19.73 52.25-17.4 52.25-13.3L52.25-13.3Q52.25-9.6 52.92-7.3 53.6-5 55.1-3.98 56.6-2.95 59.05-2.95ZM81.39-31.45L78.59-31.45Q77.79-31.45 77.79-32.25L77.79-32.25 77.79-36.15Q77.79-36.95 78.59-36.95L78.59-36.95 81.39-36.95Q81.79-36.95 81.97-36.73 82.14-36.5 82.14-36.15L82.14-36.15 82.14-32.25Q82.14-31.45 81.39-31.45L81.39-31.45ZM81.94 0L77.99 0 77.99-26.7 81.94-26.7 81.94 0ZM91.84 0.05L89.64 0.05Q88.84 0.05 88.84-0.75L88.84-0.75 88.84-4.75Q88.84-5.55 89.64-5.55L89.64-5.55 91.84-5.55Q92.64-5.55 92.64-4.75L92.64-4.75 92.64-0.75Q92.64-0.35 92.42-0.15 92.19 0.05 91.84 0.05L91.84 0.05ZM103.49 0L99.54 0 99.54-26.7 102.64-26.7 103.49-23.75Q105.39-25.1 107.94-26.13 110.49-27.15 113.24-27.15L113.24-27.15Q116.19-27.15 117.99-25.9 119.79-24.65 120.64-22.6 121.49-20.55 121.49-18.15L121.49-18.15 121.49 0 117.54 0 117.54-17.7Q117.54-19.4 116.86-20.73 116.19-22.05 114.96-22.8 113.74-23.55 111.94-23.55L111.94-23.55Q110.29-23.55 108.86-23.23 107.44-22.9 106.16-22.33 104.89-21.75 103.49-20.95L103.49-20.95 103.49 0ZM139.14 0.3L139.14 0.3Q134.94 0.3 132.51-0.95 130.09-2.2 129.04-5.2 127.99-8.2 127.99-13.4L127.99-13.4Q127.99-18.7 129.06-21.68 130.14-24.65 132.59-25.85 135.04-27.05 139.19-27.05L139.19-27.05Q142.74-27.05 144.96-26.25 147.19-25.45 148.26-23.53 149.34-21.6 149.34-18.2L149.34-18.2Q149.34-15.85 148.41-14.43 147.49-13 145.76-12.38 144.04-11.75 141.69-11.75L141.69-11.75 131.94-11.75Q131.99-8.5 132.64-6.53 133.29-4.55 135.01-3.68 136.74-2.8 140.09-2.8L140.09-2.8 148.69-2.8 148.69-0.4Q146.39-0.1 144.19 0.1 141.99 0.3 139.14 0.3ZM131.89-14.35L131.89-14.35 141.39-14.35Q143.64-14.35 144.71-15.18 145.79-16 145.79-18.15L145.79-18.15Q145.79-20.45 145.11-21.73 144.44-23 143.01-23.53 141.59-24.05 139.19-24.05L139.19-24.05Q136.39-24.05 134.79-23.23 133.19-22.4 132.54-20.3 131.89-18.2 131.89-14.35ZM168.48 0L164.83 0Q162.23 0 160.53-0.85 158.83-1.7 158.03-3.6 157.23-5.5 157.28-8.65L157.28-8.65 157.43-23.45 153.18-23.45 153.18-26 157.48-26.7 158.13-34.15 161.18-34.15 161.18-26.7 168.88-26.7 168.88-23.45 161.18-23.45 161.18-8.65Q161.18-6.9 161.56-5.85 161.93-4.8 162.56-4.25 163.18-3.7 163.88-3.48 164.58-3.25 165.23-3.2L165.23-3.2 168.48-2.9 168.48 0ZM176.63 0.05L174.43 0.05Q173.63 0.05 173.63-0.75L173.63-0.75 173.63-4.75Q173.63-5.55 174.43-5.55L174.43-5.55 176.63-5.55Q177.43-5.55 177.43-4.75L177.43-4.75 177.43-0.75Q177.43-0.35 177.21-0.15 176.98 0.05 176.63 0.05L176.63 0.05ZM192.28 0.3L192.28 0.3Q188.43 0.3 186.35-1.7 184.28-3.7 184.28-7.9L184.28-7.9 184.28-26.7 188.23-26.7 188.23-8.9Q188.23-5.55 189.75-4.38 191.28-3.2 194.03-3.2L194.03-3.2Q196.38-3.2 198.33-3.88 200.28-4.55 202.33-5.75L202.33-5.75 202.33-26.7 206.28-26.7 206.28 0 203.18 0 202.33-2.95Q200.28-1.65 197.7-0.68 195.13 0.3 192.28 0.3ZM218.93 0.3L218.93 0.3Q215.98 0.3 214.08-1.45 212.18-3.2 212.18-6.4L212.18-6.4 212.18-8.3Q212.18-11.45 214.25-13.4 216.33-15.35 220.53-15.35L220.53-15.35 229.58-15.35 229.58-18.65Q229.58-20.3 229-21.48 228.43-22.65 226.95-23.3 225.48-23.95 222.68-23.95L222.68-23.95 214.38-23.95 214.38-26.3Q216.13-26.6 218.45-26.85 220.78-27.1 223.93-27.1L223.93-27.1Q227.18-27.15 229.33-26.3 231.48-25.45 232.5-23.63 233.53-21.8 233.53-18.85L233.53-18.85 233.53 0 230.48 0 229.73-3.05Q229.53-2.85 228.5-2.35 227.48-1.85 225.9-1.23 224.33-0.6 222.5-0.15 220.68 0.3 218.93 0.3ZM220.58-2.65L220.58-2.65Q221.48-2.6 222.63-2.85 223.78-3.1 224.98-3.43 226.18-3.75 227.2-4.1 228.23-4.45 228.88-4.7 229.53-4.95 229.58-4.95L229.58-4.95 229.58-13.35 221.43-13Q218.58-12.9 217.35-11.6 216.13-10.3 216.13-8.25L216.13-8.25 216.13-7.05Q216.13-5.45 216.8-4.48 217.48-3.5 218.5-3.1 219.53-2.7 220.58-2.65Z" opacity="1" transform="matrix(1,0,0,1,0,0)" fill="#000000" class="undefined-text-0" data-fill-palette-color="primary" id="text-0"></path></svg></g></svg></g></svg></g></svg></g></svg></g></svg></g></svg></g><g mask="url(#f030f4a8-bf9f-40e4-b190-19885054ef0b)"><g transform="matrix(3.1844155844155844, 0, 0, 3.1844155844155844, 58.60104867910408, 1)"><svg xmlns="http://www.w3.org/2000/svg" xmlns:xlink="http://www.w3.org/1999/xlink" version="1.1" x="0" y="0" viewBox="6.300000190734863 11.5 87.39999389648438 77" style="enable-background:new 0 0 100 100;" xml:space="preserve" height="77" width="87.39999389648438" class="icon-none" data-fill-palette-color="accent" id="none"><path d="M72.3 12.3L72.3 12.3 72.3 12.3l-0.4-0.8H28.2L6.3 50l21.8 38.5h43.7L93.7 50 72.3 12.3zM33.3 25.3L9.9 47.7l18.6-32.8L33.3 25.3zM70.7 14.8l6.4 35.7L36.9 25.8 70.7 14.8zM35.5 27.3l41 25.2-41 23.3V27.3zM77 54.5l-7.2 30.8-32.6-8.1L77 54.5zM33.5 75L9.9 50.5l23.6-22.7V75zM33.2 77.6l-4.6 7.7L11.5 55.1 33.2 77.6zM35 78.6l31.4 7.9H30.2L35 78.6zM79.3 53.3l11.6-2.5L72.1 84 79.3 53.3zM90.7 48.9l-11.4 2.5-5.9-33.1L90.7 48.9zM35 24.3l-5-10.8h38.2L35 24.3z" fill="#000000" data-fill-palette-color="accent"></path></svg></g></g></svg></g><defs><mask id="c93009e6-b2c5-4797-a060-4907baffa46c"><rect width="640" height="400" fill="white"></rect><rect width="348.05760000000004" height="77.66881381342512" fill="black" x="145.97119999999998" y="161.16559309328744" id="transform-me" transform="matrix(1,0,0,1,-122.24000000000001,-76.4)"></rect></mask><mask id="7d9d08bf-a007-439f-b6d6-28b47d9beb5c"><rect width="640" height="400" fill="white"></rect><rect width="348.05760000000004" height="77.66881381342512" fill="black" x="145.97119999999998" y="161.16559309328744" id="transform-me" transform="matrix(1,0,0,1,-122.24000000000001,-76.4)"></rect></mask><mask id="39bf74ca-870c-43bf-9f0e-d8aa300efb3b"><rect width="640" height="400" fill="white"></rect><rect width="348.05760000000004" height="77.66881381342512" fill="black" x="145.97119999999998" y="161.16559309328744" id="transform-me" transform="matrix(1,0,0,1,-122.24000000000001,-76.4)"></rect></mask><mask id="e456788b-0892-4a7b-a8cc-a6c15dbd6bb4"><rect width="640" height="400" fill="white"></rect><rect width="348.05760000000004" height="77.66881381342512" fill="black" x="145.97119999999998" y="161.16559309328744" id="transform-me" transform="matrix(1,0,0,1,-122.24000000000001,-76.4)"></rect></mask><mask id="bef96824-9e89-44ff-bee6-128b8b2937b3"><rect width="640" height="400" fill="white"></rect><rect width="348.05760000000004" height="77.66881381342512" fill="black" x="145.97119999999998" y="161.16559309328744" id="transform-me" transform="matrix(1,0,0,1,-122.24000000000001,-76.4)"></rect></mask><mask id="39ceb041-8eea-4bb3-930e-36feeab71109"><rect width="640" height="400" fill="white"></rect><rect width="348.05760000000004" height="77.66881381342512" fill="black" x="145.97119999999998" y="161.16559309328744" id="transform-me" transform="matrix(1,0,0,1,-122.24000000000001,-76.4)"></rect></mask><mask id="918edec5-a6a7-49d5-aaea-e8819bacd980"><rect width="640" height="400" fill="white"></rect><rect width="348.05760000000004" height="77.66881381342512" fill="black" x="145.97119999999998" y="161.16559309328744" id="transform-me" transform="matrix(1,0,0,1,-122.24000000000001,-76.4)"></rect></mask><mask id="31d7251b-4aae-4d06-a5ec-b5f11f67a5f5"><rect width="640" height="400" fill="white"></rect><rect width="348.05760000000004" height="77.66881381342512" fill="black" x="145.97119999999998" y="161.16559309328744" id="transform-me" transform="matrix(1,0,0,1,-122.24000000000001,-76.4)"></rect></mask><mask id="f680028a-4f6e-4f7f-8470-878910f70d6e"><rect width="640" height="400" fill="white"></rect><rect width="348.05760000000004" height="77.66881381342512" fill="black" x="145.97119999999998" y="161.16559309328744" id="transform-me" transform="matrix(1,0,0,1,-122.24000000000001,-76.4)"></rect></mask><mask id="cad207b8-1c34-42b6-81d3-7c7491b8716d"><rect width="640" height="400" fill="white"></rect><rect width="348.05760000000004" height="77.66881381342512" fill="black" x="145.97119999999998" y="161.16559309328744" id="transform-me" transform="matrix(1,0,0,1,-122.24000000000001,-76.4)"></rect></mask><mask id="ce6a1ff9-3a28-4626-9006-adc13eadc29e"><rect width="640" height="400" fill="white"></rect><rect width="348.05760000000004" height="77.66881381342512" fill="black" x="145.97119999999998" y="161.16559309328744" id="transform-me" transform="matrix(1,0,0,1,-122.24000000000001,-76.4)"></rect></mask><mask id="333e4b99-890f-4cfc-9d90-884c06dd2891"><rect width="640" height="400" fill="white"></rect><rect width="232.0384" height="51.77920920895008" fill="black" x="203.9808" y="174.11039539552496" id="transform-me" transform="matrix(1,0,0,1,-122.24000000000001,-76.4)"></rect></mask><mask id="c1573f34-10c6-418a-8da5-7d320f5061d5"><rect width="640" height="400" fill="white"></rect><rect width="348.05760000000004" height="77.66881381342512" fill="black" x="145.97119999999998" y="161.16559309328744" id="transform-me" transform="matrix(1,0,0,1,-122.24000000000001,-76.4)"></rect></mask><mask id="2786056a-80e7-41b8-8bb0-d97bd01e94f0"><rect width="640" height="400" fill="white"></rect><rect width="435.072" height="97.08601726678138" fill="black" x="102.464" y="151.45699136660932" id="transform-me" transform="matrix(1,0,0,1,-122.24000000000001,-76.4)"></rect></mask><mask id="55c2c1f4-5d2e-495d-b331-af7242bfffc7"><rect width="640" height="400" fill="white"></rect><rect width="435.072" height="97.08601726678138" fill="black" x="102.464" y="151.45699136660932" id="transform-me" transform="matrix(1,0,0,1,-122.24000000000001,-76.4)"></rect></mask><mask id="f030f4a8-bf9f-40e4-b190-19885054ef0b"><rect width="640" height="400" fill="white"></rect><rect width="348.05760000000004" height="77.66881381342512" fill="black" x="145.97119999999998" y="161.16559309328744" id="transform-me" transform="matrix(1,0,0,1,-122.24000000000001,-76.4)"></rect></mask></defs></svg><rect width="395.52" height="247.2" fill="none" stroke="none" visibility="hidden"></rect></g></svg></g></svg>